<svg width="564" height="564" viewBox="0 0 564 564" fill="none" xmlns="http://www.w3.org/2000/svg">
<g clip-path="url(#clip0_32_38)">
<rect x="29" width="506" height="506" rx="253" fill="#111111" style="fill:#111111;fill:color(display-p3 0.0667 0.0667 0.0667);fill-opacity:1;"/>
<g filter="url(#filter0_f_32_38)">
<circle cx="42.5" cy="506.5" r="241.5" fill="#4343ED" style="fill:#4343ED;fill:color(display-p3 0.2627 0.2627 0.9294);fill-opacity:1;"/>
</g>
<g filter="url(#filter1_f_32_38)">
<circle cx="452.5" cy="38.5" r="241.5" fill="#4343ED" style="fill:#4343ED;fill:color(display-p3 0.2627 0.2627 0.9294);fill-opacity:1;"/>
</g>
<g filter="url(#filter2_f_32_38)">
<ellipse cx="218.257" cy="231.677" rx="170.972" ry="538.401" transform="rotate(-43.112 218.257 231.677)" fill="#111111" style="fill:#111111;fill:color(display-p3 0.0667 0.0667 0.0667);fill-opacity:1;"/>
</g>
<rect x="147.5" y="401.5" width="232" height="47" rx="23.5" stroke="#323240" style="stroke:#323240;stroke:color(display-p3 0.1961 0.1961 0.2510);stroke-opacity:1;"/>
<path d="M172.8 421.296V424.428H175.98V425.124H172.8V428.304H176.34V429H171.96V420.6H176.34V421.296H172.8ZM181.067 422.328C181.851 422.328 182.491 422.572 182.987 423.06C183.483 423.54 183.731 424.24 183.731 425.16V429H182.903V425.256C182.903 424.544 182.723 424 182.363 423.624C182.011 423.248 181.527 423.06 180.911 423.06C180.279 423.06 179.775 423.26 179.399 423.66C179.023 424.06 178.835 424.648 178.835 425.424V429H177.995V422.448H178.835V423.564C179.043 423.164 179.343 422.86 179.735 422.652C180.127 422.436 180.571 422.328 181.067 422.328ZM187.917 428.184L190.125 422.448H191.013L188.385 429H187.437L184.809 422.448H185.709L187.917 428.184ZM192.571 421.212C192.403 421.212 192.259 421.152 192.139 421.032C192.019 420.912 191.959 420.764 191.959 420.588C191.959 420.412 192.019 420.268 192.139 420.156C192.259 420.036 192.403 419.976 192.571 419.976C192.739 419.976 192.883 420.036 193.003 420.156C193.123 420.268 193.183 420.412 193.183 420.588C193.183 420.764 193.123 420.912 193.003 421.032C192.883 421.152 192.739 421.212 192.571 421.212ZM192.991 422.448V429H192.151V422.448H192.991ZM200.822 425.388C200.822 425.676 200.814 425.896 200.798 426.048H195.362C195.386 426.544 195.506 426.968 195.722 427.32C195.938 427.672 196.222 427.94 196.574 428.124C196.926 428.3 197.31 428.388 197.726 428.388C198.27 428.388 198.726 428.256 199.094 427.992C199.47 427.728 199.718 427.372 199.838 426.924H200.726C200.566 427.564 200.222 428.088 199.694 428.496C199.174 428.896 198.518 429.096 197.726 429.096C197.11 429.096 196.558 428.96 196.07 428.688C195.582 428.408 195.198 428.016 194.918 427.512C194.646 427 194.51 426.404 194.51 425.724C194.51 425.044 194.646 424.448 194.918 423.936C195.19 423.424 195.57 423.032 196.058 422.76C196.546 422.488 197.102 422.352 197.726 422.352C198.35 422.352 198.894 422.488 199.358 422.76C199.83 423.032 200.19 423.4 200.438 423.864C200.694 424.32 200.822 424.828 200.822 425.388ZM199.97 425.364C199.978 424.876 199.878 424.46 199.67 424.116C199.47 423.772 199.194 423.512 198.842 423.336C198.49 423.16 198.106 423.072 197.69 423.072C197.066 423.072 196.534 423.272 196.094 423.672C195.654 424.072 195.41 424.636 195.362 425.364H199.97ZM211.579 425.388C211.579 425.676 211.571 425.896 211.555 426.048H206.119C206.143 426.544 206.263 426.968 206.479 427.32C206.695 427.672 206.979 427.94 207.331 428.124C207.683 428.3 208.067 428.388 208.483 428.388C209.027 428.388 209.483 428.256 209.851 427.992C210.227 427.728 210.475 427.372 210.595 426.924H211.483C211.323 427.564 210.979 428.088 210.451 428.496C209.931 428.896 209.275 429.096 208.483 429.096C207.867 429.096 207.315 428.96 206.827 428.688C206.339 428.408 205.955 428.016 205.675 427.512C205.403 427 205.267 426.404 205.267 425.724C205.267 425.044 205.403 424.448 205.675 423.936C205.947 423.424 206.327 423.032 206.815 422.76C207.303 422.488 207.859 422.352 208.483 422.352C209.107 422.352 209.651 422.488 210.115 422.76C210.587 423.032 210.947 423.4 211.195 423.864C211.451 424.32 211.579 424.828 211.579 425.388ZM210.727 425.364C210.735 424.876 210.635 424.46 210.427 424.116C210.227 423.772 209.951 423.512 209.599 423.336C209.247 423.16 208.863 423.072 208.447 423.072C207.823 423.072 207.291 423.272 206.851 423.672C206.411 424.072 206.167 424.636 206.119 425.364H210.727ZM215.372 429.096C214.62 429.096 214.004 428.924 213.524 428.58C213.052 428.228 212.788 427.752 212.732 427.152H213.596C213.636 427.52 213.808 427.82 214.112 428.052C214.424 428.276 214.84 428.388 215.36 428.388C215.816 428.388 216.172 428.28 216.428 428.064C216.692 427.848 216.824 427.58 216.824 427.26C216.824 427.036 216.752 426.852 216.608 426.708C216.464 426.564 216.28 426.452 216.056 426.372C215.84 426.284 215.544 426.192 215.168 426.096C214.68 425.968 214.284 425.84 213.98 425.712C213.676 425.584 213.416 425.396 213.2 425.148C212.992 424.892 212.888 424.552 212.888 424.128C212.888 423.808 212.984 423.512 213.176 423.24C213.368 422.968 213.64 422.752 213.992 422.592C214.344 422.432 214.744 422.352 215.192 422.352C215.896 422.352 216.464 422.532 216.896 422.892C217.328 423.244 217.56 423.732 217.592 424.356H216.752C216.728 423.972 216.576 423.664 216.296 423.432C216.024 423.192 215.648 423.072 215.168 423.072C214.744 423.072 214.4 423.172 214.136 423.372C213.872 423.572 213.74 423.82 213.74 424.116C213.74 424.372 213.816 424.584 213.968 424.752C214.128 424.912 214.324 425.04 214.556 425.136C214.788 425.224 215.1 425.324 215.492 425.436C215.964 425.564 216.34 425.688 216.62 425.808C216.9 425.928 217.14 426.104 217.34 426.336C217.54 426.568 217.644 426.876 217.652 427.26C217.652 427.612 217.556 427.928 217.364 428.208C217.172 428.48 216.904 428.696 216.56 428.856C216.216 429.016 215.82 429.096 215.372 429.096ZM221.489 429.096C220.737 429.096 220.121 428.924 219.641 428.58C219.169 428.228 218.905 427.752 218.849 427.152H219.713C219.753 427.52 219.925 427.82 220.229 428.052C220.541 428.276 220.957 428.388 221.477 428.388C221.933 428.388 222.289 428.28 222.545 428.064C222.809 427.848 222.941 427.58 222.941 427.26C222.941 427.036 222.869 426.852 222.725 426.708C222.581 426.564 222.397 426.452 222.173 426.372C221.957 426.284 221.661 426.192 221.285 426.096C220.797 425.968 220.401 425.84 220.097 425.712C219.793 425.584 219.533 425.396 219.317 425.148C219.109 424.892 219.005 424.552 219.005 424.128C219.005 423.808 219.101 423.512 219.293 423.24C219.485 422.968 219.757 422.752 220.109 422.592C220.461 422.432 220.861 422.352 221.309 422.352C222.013 422.352 222.581 422.532 223.013 422.892C223.445 423.244 223.677 423.732 223.709 424.356H222.869C222.845 423.972 222.693 423.664 222.413 423.432C222.141 423.192 221.765 423.072 221.285 423.072C220.861 423.072 220.517 423.172 220.253 423.372C219.989 423.572 219.857 423.82 219.857 424.116C219.857 424.372 219.933 424.584 220.085 424.752C220.245 424.912 220.441 425.04 220.673 425.136C220.905 425.224 221.217 425.324 221.609 425.436C222.081 425.564 222.457 425.688 222.737 425.808C223.017 425.928 223.257 426.104 223.457 426.336C223.657 426.568 223.761 426.876 223.769 427.26C223.769 427.612 223.673 427.928 223.481 428.208C223.289 428.48 223.021 428.696 222.677 428.856C222.333 429.016 221.937 429.096 221.489 429.096ZM231.279 425.388C231.279 425.676 231.271 425.896 231.255 426.048H225.819C225.843 426.544 225.963 426.968 226.179 427.32C226.395 427.672 226.679 427.94 227.031 428.124C227.383 428.3 227.767 428.388 228.183 428.388C228.727 428.388 229.183 428.256 229.551 427.992C229.927 427.728 230.175 427.372 230.295 426.924H231.183C231.023 427.564 230.679 428.088 230.151 428.496C229.631 428.896 228.975 429.096 228.183 429.096C227.567 429.096 227.015 428.96 226.527 428.688C226.039 428.408 225.655 428.016 225.375 427.512C225.103 427 224.967 426.404 224.967 425.724C224.967 425.044 225.103 424.448 225.375 423.936C225.647 423.424 226.027 423.032 226.515 422.76C227.003 422.488 227.559 422.352 228.183 422.352C228.807 422.352 229.351 422.488 229.815 422.76C230.287 423.032 230.647 423.4 230.895 423.864C231.151 424.32 231.279 424.828 231.279 425.388ZM230.427 425.364C230.435 424.876 230.335 424.46 230.127 424.116C229.927 423.772 229.651 423.512 229.299 423.336C228.947 423.16 228.563 423.072 228.147 423.072C227.523 423.072 226.991 423.272 226.551 423.672C226.111 424.072 225.867 424.636 225.819 425.364H230.427ZM236.948 421.296V424.428H240.128V425.124H236.948V428.304H240.488V429H236.108V420.6H240.488V421.296H236.948ZM246.212 424.2V424.908H241.544V424.2H246.212ZM256.166 422.328C256.934 422.328 257.558 422.572 258.038 423.06C258.526 423.54 258.77 424.24 258.77 425.16V429H257.942V425.256C257.942 424.544 257.77 424 257.426 423.624C257.082 423.248 256.614 423.06 256.022 423.06C255.406 423.06 254.914 423.264 254.546 423.672C254.178 424.08 253.994 424.672 253.994 425.448V429H253.166V425.256C253.166 424.544 252.994 424 252.65 423.624C252.306 423.248 251.834 423.06 251.234 423.06C250.618 423.06 250.126 423.264 249.758 423.672C249.39 424.08 249.206 424.672 249.206 425.448V429H248.366V422.448H249.206V423.576C249.414 423.168 249.71 422.86 250.094 422.652C250.478 422.436 250.906 422.328 251.378 422.328C251.946 422.328 252.442 422.464 252.866 422.736C253.298 423.008 253.61 423.408 253.802 423.936C253.978 423.416 254.278 423.02 254.702 422.748C255.134 422.468 255.622 422.328 256.166 422.328ZM260.252 425.712C260.252 425.04 260.384 424.452 260.648 423.948C260.92 423.436 261.292 423.044 261.764 422.772C262.244 422.492 262.784 422.352 263.384 422.352C264.008 422.352 264.544 422.496 264.992 422.784C265.448 423.072 265.776 423.44 265.976 423.888V422.448H266.816V429H265.976V427.548C265.768 427.996 265.436 428.368 264.98 428.664C264.532 428.952 263.996 429.096 263.372 429.096C262.78 429.096 262.244 428.956 261.764 428.676C261.292 428.396 260.92 428 260.648 427.488C260.384 426.976 260.252 426.384 260.252 425.712ZM265.976 425.724C265.976 425.196 265.868 424.732 265.652 424.332C265.436 423.932 265.14 423.624 264.764 423.408C264.396 423.192 263.988 423.084 263.54 423.084C263.076 423.084 262.66 423.188 262.292 423.396C261.924 423.604 261.632 423.908 261.416 424.308C261.208 424.7 261.104 425.168 261.104 425.712C261.104 426.248 261.208 426.72 261.416 427.128C261.632 427.528 261.924 427.836 262.292 428.052C262.66 428.26 263.076 428.364 263.54 428.364C263.988 428.364 264.396 428.256 264.764 428.04C265.14 427.824 265.436 427.516 265.652 427.116C265.868 426.716 265.976 426.252 265.976 425.724ZM269.153 421.212C268.985 421.212 268.841 421.152 268.721 421.032C268.601 420.912 268.541 420.764 268.541 420.588C268.541 420.412 268.601 420.268 268.721 420.156C268.841 420.036 268.985 419.976 269.153 419.976C269.321 419.976 269.465 420.036 269.585 420.156C269.705 420.268 269.765 420.412 269.765 420.588C269.765 420.764 269.705 420.912 269.585 421.032C269.465 421.152 269.321 421.212 269.153 421.212ZM269.573 422.448V429H268.733V422.448H269.573ZM272.316 420.12V429H271.476V420.12H272.316Z" fill="white" fill-opacity="0.64" style="fill:white;fill-opacity:0.64;"/>
<rect x="332.5" y="401.5" width="47" height="47" rx="23.5" stroke="#323240" style="stroke:#323240;stroke:color(display-p3 0.1961 0.1961 0.2510);stroke-opacity:1;"/>
<path d="M350 431L362 419M362 419H353.818M362 419V426.636" stroke="white" style="stroke:white;stroke-opacity:1;" stroke-linecap="round" stroke-linejoin="round"/>
<path d="M149.027 139.636V144.928C149.027 145.672 149.207 146.224 149.567 146.584C149.935 146.944 150.443 147.124 151.091 147.124C151.731 147.124 152.231 146.944 152.591 146.584C152.959 146.224 153.143 145.672 153.143 144.928V139.636H154.235V144.916C154.235 145.612 154.095 146.2 153.815 146.68C153.535 147.152 153.155 147.504 152.675 147.736C152.203 147.968 151.671 148.084 151.079 148.084C150.487 148.084 149.951 147.968 149.471 147.736C148.999 147.504 148.623 147.152 148.343 146.68C148.071 146.2 147.935 145.612 147.935 144.916V139.636H149.027ZM163.965 141.304C164.477 141.304 164.933 141.412 165.333 141.628C165.733 141.836 166.049 142.152 166.281 142.576C166.513 143 166.629 143.516 166.629 144.124V148H165.549V144.28C165.549 143.624 165.385 143.124 165.057 142.78C164.737 142.428 164.301 142.252 163.749 142.252C163.181 142.252 162.729 142.436 162.393 142.804C162.057 143.164 161.889 143.688 161.889 144.376V148H160.809V144.28C160.809 143.624 160.645 143.124 160.317 142.78C159.997 142.428 159.561 142.252 159.009 142.252C158.441 142.252 157.989 142.436 157.653 142.804C157.317 143.164 157.149 143.688 157.149 144.376V148H156.057V141.424H157.149V142.372C157.365 142.028 157.653 141.764 158.013 141.58C158.381 141.396 158.785 141.304 159.225 141.304C159.777 141.304 160.265 141.428 160.689 141.676C161.113 141.924 161.429 142.288 161.637 142.768C161.821 142.304 162.125 141.944 162.549 141.688C162.973 141.432 163.445 141.304 163.965 141.304ZM168.012 144.688C168.012 144.016 168.148 143.428 168.42 142.924C168.692 142.412 169.064 142.016 169.536 141.736C170.016 141.456 170.548 141.316 171.132 141.316C171.708 141.316 172.208 141.44 172.632 141.688C173.056 141.936 173.372 142.248 173.58 142.624V141.424H174.684V148H173.58V146.776C173.364 147.16 173.04 147.48 172.608 147.736C172.184 147.984 171.688 148.108 171.12 148.108C170.536 148.108 170.008 147.964 169.536 147.676C169.064 147.388 168.692 146.984 168.42 146.464C168.148 145.944 168.012 145.352 168.012 144.688ZM173.58 144.7C173.58 144.204 173.48 143.772 173.28 143.404C173.08 143.036 172.808 142.756 172.464 142.564C172.128 142.364 171.756 142.264 171.348 142.264C170.94 142.264 170.568 142.36 170.232 142.552C169.896 142.744 169.628 143.024 169.428 143.392C169.228 143.76 169.128 144.192 169.128 144.688C169.128 145.192 169.228 145.632 169.428 146.008C169.628 146.376 169.896 146.66 170.232 146.86C170.568 147.052 170.94 147.148 171.348 147.148C171.756 147.148 172.128 147.052 172.464 146.86C172.808 146.66 173.08 146.376 173.28 146.008C173.48 145.632 173.58 145.196 173.58 144.7ZM180.821 139.12V148H179.729V139.12H180.821ZM182.274 144.688C182.274 144.016 182.41 143.428 182.682 142.924C182.954 142.412 183.326 142.016 183.798 141.736C184.278 141.456 184.81 141.316 185.394 141.316C185.97 141.316 186.47 141.44 186.894 141.688C187.318 141.936 187.634 142.248 187.842 142.624V141.424H188.946V148H187.842V146.776C187.626 147.16 187.302 147.48 186.87 147.736C186.446 147.984 185.95 148.108 185.382 148.108C184.798 148.108 184.27 147.964 183.798 147.676C183.326 147.388 182.954 146.984 182.682 146.464C182.41 145.944 182.274 145.352 182.274 144.688ZM187.842 144.7C187.842 144.204 187.742 143.772 187.542 143.404C187.342 143.036 187.07 142.756 186.726 142.564C186.39 142.364 186.018 142.264 185.61 142.264C185.202 142.264 184.83 142.36 184.494 142.552C184.158 142.744 183.89 143.024 183.69 143.392C183.49 143.76 183.39 144.192 183.39 144.688C183.39 145.192 183.49 145.632 183.69 146.008C183.89 146.376 184.158 146.66 184.494 146.86C184.83 147.052 185.202 147.148 185.61 147.148C186.018 147.148 186.39 147.052 186.726 146.86C187.07 146.66 187.342 146.376 187.542 146.008C187.742 145.632 187.842 145.196 187.842 144.7ZM193.995 141.304C194.795 141.304 195.443 141.548 195.939 142.036C196.435 142.516 196.683 143.212 196.683 144.124V148H195.603V144.28C195.603 143.624 195.439 143.124 195.111 142.78C194.783 142.428 194.335 142.252 193.767 142.252C193.191 142.252 192.731 142.432 192.387 142.792C192.051 143.152 191.883 143.676 191.883 144.364V148H190.791V141.424H191.883V142.36C192.099 142.024 192.391 141.764 192.759 141.58C193.135 141.396 193.547 141.304 193.995 141.304ZM198.059 144.688C198.059 144.016 198.195 143.428 198.467 142.924C198.739 142.412 199.111 142.016 199.583 141.736C200.063 141.456 200.599 141.316 201.191 141.316C201.703 141.316 202.179 141.436 202.619 141.676C203.059 141.908 203.395 142.216 203.627 142.6V139.12H204.731V148H203.627V146.764C203.411 147.156 203.091 147.48 202.667 147.736C202.243 147.984 201.747 148.108 201.179 148.108C200.595 148.108 200.063 147.964 199.583 147.676C199.111 147.388 198.739 146.984 198.467 146.464C198.195 145.944 198.059 145.352 198.059 144.688ZM203.627 144.7C203.627 144.204 203.527 143.772 203.327 143.404C203.127 143.036 202.855 142.756 202.511 142.564C202.175 142.364 201.803 142.264 201.395 142.264C200.987 142.264 200.615 142.36 200.279 142.552C199.943 142.744 199.675 143.024 199.475 143.392C199.275 143.76 199.175 144.192 199.175 144.688C199.175 145.192 199.275 145.632 199.475 146.008C199.675 146.376 199.943 146.66 200.279 146.86C200.615 147.052 200.987 147.148 201.395 147.148C201.803 147.148 202.175 147.052 202.511 146.86C202.855 146.66 203.127 146.376 203.327 146.008C203.527 145.632 203.627 145.196 203.627 144.7ZM207.14 140.356C206.932 140.356 206.756 140.284 206.612 140.14C206.468 139.996 206.396 139.82 206.396 139.612C206.396 139.404 206.468 139.228 206.612 139.084C206.756 138.94 206.932 138.868 207.14 138.868C207.34 138.868 207.508 138.94 207.644 139.084C207.788 139.228 207.86 139.404 207.86 139.612C207.86 139.82 207.788 139.996 207.644 140.14C207.508 140.284 207.34 140.356 207.14 140.356ZM207.668 141.424V148H206.576V141.424H207.668ZM212.733 141.304C213.533 141.304 214.181 141.548 214.677 142.036C215.173 142.516 215.421 143.212 215.421 144.124V148H214.341V144.28C214.341 143.624 214.177 143.124 213.849 142.78C213.521 142.428 213.073 142.252 212.505 142.252C211.929 142.252 211.469 142.432 211.125 142.792C210.789 143.152 210.621 143.676 210.621 144.364V148H209.529V141.424H210.621V142.36C210.837 142.024 211.129 141.764 211.497 141.58C211.873 141.396 212.285 141.304 212.733 141.304ZM219.917 141.316C220.485 141.316 220.981 141.44 221.405 141.688C221.837 141.936 222.157 142.248 222.365 142.624V141.424H223.469V148.144C223.469 148.744 223.341 149.276 223.085 149.74C222.829 150.212 222.461 150.58 221.981 150.844C221.509 151.108 220.957 151.24 220.325 151.24C219.461 151.24 218.741 151.036 218.165 150.628C217.589 150.22 217.249 149.664 217.145 148.96H218.225C218.345 149.36 218.593 149.68 218.969 149.92C219.345 150.168 219.797 150.292 220.325 150.292C220.925 150.292 221.413 150.104 221.789 149.728C222.173 149.352 222.365 148.824 222.365 148.144V146.764C222.149 147.148 221.829 147.468 221.405 147.724C220.981 147.98 220.485 148.108 219.917 148.108C219.333 148.108 218.801 147.964 218.321 147.676C217.849 147.388 217.477 146.984 217.205 146.464C216.933 145.944 216.797 145.352 216.797 144.688C216.797 144.016 216.933 143.428 217.205 142.924C217.477 142.412 217.849 142.016 218.321 141.736C218.801 141.456 219.333 141.316 219.917 141.316ZM222.365 144.7C222.365 144.204 222.265 143.772 222.065 143.404C221.865 143.036 221.593 142.756 221.249 142.564C220.913 142.364 220.541 142.264 220.133 142.264C219.725 142.264 219.353 142.36 219.017 142.552C218.681 142.744 218.413 143.024 218.213 143.392C218.013 143.76 217.913 144.192 217.913 144.688C217.913 145.192 218.013 145.632 218.213 146.008C218.413 146.376 218.681 146.66 219.017 146.86C219.353 147.052 219.725 147.148 220.133 147.148C220.541 147.148 220.913 147.052 221.249 146.86C221.593 146.66 221.865 146.376 222.065 146.008C222.265 145.632 222.365 145.196 222.365 144.7ZM231.226 141.316C231.794 141.316 232.29 141.44 232.714 141.688C233.146 141.936 233.466 142.248 233.674 142.624V141.424H234.778V148.144C234.778 148.744 234.65 149.276 234.394 149.74C234.138 150.212 233.77 150.58 233.29 150.844C232.818 151.108 232.266 151.24 231.634 151.24C230.77 151.24 230.05 151.036 229.474 150.628C228.898 150.22 228.558 149.664 228.454 148.96H229.534C229.654 149.36 229.902 149.68 230.278 149.92C230.654 150.168 231.106 150.292 231.634 150.292C232.234 150.292 232.722 150.104 233.098 149.728C233.482 149.352 233.674 148.824 233.674 148.144V146.764C233.458 147.148 233.138 147.468 232.714 147.724C232.29 147.98 231.794 148.108 231.226 148.108C230.642 148.108 230.11 147.964 229.63 147.676C229.158 147.388 228.786 146.984 228.514 146.464C228.242 145.944 228.106 145.352 228.106 144.688C228.106 144.016 228.242 143.428 228.514 142.924C228.786 142.412 229.158 142.016 229.63 141.736C230.11 141.456 230.642 141.316 231.226 141.316ZM233.674 144.7C233.674 144.204 233.574 143.772 233.374 143.404C233.174 143.036 232.902 142.756 232.558 142.564C232.222 142.364 231.85 142.264 231.442 142.264C231.034 142.264 230.662 142.36 230.326 142.552C229.99 142.744 229.722 143.024 229.522 143.392C229.322 143.76 229.222 144.192 229.222 144.688C229.222 145.192 229.322 145.632 229.522 146.008C229.722 146.376 229.99 146.66 230.326 146.86C230.662 147.052 231.034 147.148 231.442 147.148C231.85 147.148 232.222 147.052 232.558 146.86C232.902 146.66 233.174 146.376 233.374 146.008C233.574 145.632 233.674 145.196 233.674 144.7ZM237.715 142.492C237.907 142.116 238.179 141.824 238.531 141.616C238.891 141.408 239.327 141.304 239.839 141.304V142.432H239.551C238.327 142.432 237.715 143.096 237.715 144.424V148H236.623V141.424H237.715V142.492ZM240.692 144.688C240.692 144.016 240.828 143.428 241.1 142.924C241.372 142.412 241.744 142.016 242.216 141.736C242.696 141.456 243.228 141.316 243.812 141.316C244.388 141.316 244.888 141.44 245.312 141.688C245.736 141.936 246.052 142.248 246.26 142.624V141.424H247.364V148H246.26V146.776C246.044 147.16 245.72 147.48 245.288 147.736C244.864 147.984 244.368 148.108 243.8 148.108C243.216 148.108 242.688 147.964 242.216 147.676C241.744 147.388 241.372 146.984 241.1 146.464C240.828 145.944 240.692 145.352 240.692 144.688ZM246.26 144.7C246.26 144.204 246.16 143.772 245.96 143.404C245.76 143.036 245.488 142.756 245.144 142.564C244.808 142.364 244.436 142.264 244.028 142.264C243.62 142.264 243.248 142.36 242.912 142.552C242.576 142.744 242.308 143.024 242.108 143.392C241.908 143.76 241.808 144.192 241.808 144.688C241.808 145.192 241.908 145.632 242.108 146.008C242.308 146.376 242.576 146.66 242.912 146.86C243.248 147.052 243.62 147.148 244.028 147.148C244.436 147.148 244.808 147.052 245.144 146.86C245.488 146.66 245.76 146.376 245.96 146.008C246.16 145.632 246.26 145.196 246.26 144.7ZM245.408 139.564L242.852 140.932V140.116L245.408 138.616V139.564ZM250.541 142.324V146.2C250.541 146.52 250.609 146.748 250.745 146.884C250.881 147.012 251.117 147.076 251.453 147.076H252.257V148H251.273C250.665 148 250.209 147.86 249.905 147.58C249.601 147.3 249.449 146.84 249.449 146.2V142.324H248.597V141.424H249.449V139.768H250.541V141.424H252.257V142.324H250.541ZM254.144 140.356C253.936 140.356 253.76 140.284 253.616 140.14C253.472 139.996 253.4 139.82 253.4 139.612C253.4 139.404 253.472 139.228 253.616 139.084C253.76 138.94 253.936 138.868 254.144 138.868C254.344 138.868 254.512 138.94 254.648 139.084C254.792 139.228 254.864 139.404 254.864 139.612C254.864 139.82 254.792 139.996 254.648 140.14C254.512 140.284 254.344 140.356 254.144 140.356ZM254.672 141.424V148H253.58V141.424H254.672ZM258.861 148.108C258.357 148.108 257.905 148.024 257.505 147.856C257.105 147.68 256.789 147.44 256.557 147.136C256.325 146.824 256.197 146.468 256.173 146.068H257.301C257.333 146.396 257.485 146.664 257.757 146.872C258.037 147.08 258.401 147.184 258.849 147.184C259.265 147.184 259.593 147.092 259.833 146.908C260.073 146.724 260.193 146.492 260.193 146.212C260.193 145.924 260.065 145.712 259.809 145.576C259.553 145.432 259.157 145.292 258.621 145.156C258.133 145.028 257.733 144.9 257.421 144.772C257.117 144.636 256.853 144.44 256.629 144.184C256.413 143.92 256.305 143.576 256.305 143.152C256.305 142.816 256.405 142.508 256.605 142.228C256.805 141.948 257.089 141.728 257.457 141.568C257.825 141.4 258.245 141.316 258.717 141.316C259.445 141.316 260.033 141.5 260.481 141.868C260.929 142.236 261.169 142.74 261.201 143.38H260.109C260.085 143.036 259.945 142.76 259.689 142.552C259.441 142.344 259.105 142.24 258.681 142.24C258.289 142.24 257.977 142.324 257.745 142.492C257.513 142.66 257.397 142.88 257.397 143.152C257.397 143.368 257.465 143.548 257.601 143.692C257.745 143.828 257.921 143.94 258.129 144.028C258.345 144.108 258.641 144.2 259.017 144.304C259.489 144.432 259.873 144.56 260.169 144.688C260.465 144.808 260.717 144.992 260.925 145.24C261.141 145.488 261.253 145.812 261.261 146.212C261.261 146.572 261.161 146.896 260.961 147.184C260.761 147.472 260.477 147.7 260.109 147.868C259.749 148.028 259.333 148.108 258.861 148.108ZM268.678 142.324H267.298V148H266.206V142.324H265.354V141.424H266.206V140.956C266.206 140.22 266.394 139.684 266.77 139.348C267.154 139.004 267.766 138.832 268.606 138.832V139.744C268.126 139.744 267.786 139.84 267.586 140.032C267.394 140.216 267.298 140.524 267.298 140.956V141.424H268.678V142.324ZM275.951 144.46C275.951 144.668 275.939 144.888 275.915 145.12H270.659C270.699 145.768 270.919 146.276 271.319 146.644C271.727 147.004 272.219 147.184 272.795 147.184C273.267 147.184 273.659 147.076 273.971 146.86C274.291 146.636 274.515 146.34 274.643 145.972H275.819C275.643 146.604 275.291 147.12 274.763 147.52C274.235 147.912 273.579 148.108 272.795 148.108C272.171 148.108 271.611 147.968 271.115 147.688C270.627 147.408 270.243 147.012 269.963 146.5C269.683 145.98 269.543 145.38 269.543 144.7C269.543 144.02 269.679 143.424 269.951 142.912C270.223 142.4 270.603 142.008 271.091 141.736C271.587 141.456 272.155 141.316 272.795 141.316C273.419 141.316 273.971 141.452 274.451 141.724C274.931 141.996 275.299 142.372 275.555 142.852C275.819 143.324 275.951 143.86 275.951 144.46ZM274.823 144.232C274.823 143.816 274.731 143.46 274.547 143.164C274.363 142.86 274.111 142.632 273.791 142.48C273.479 142.32 273.131 142.24 272.747 142.24C272.195 142.24 271.723 142.416 271.331 142.768C270.947 143.12 270.727 143.608 270.671 144.232H274.823ZM277.957 140.356C277.749 140.356 277.573 140.284 277.429 140.14C277.285 139.996 277.213 139.82 277.213 139.612C277.213 139.404 277.285 139.228 277.429 139.084C277.573 138.94 277.749 138.868 277.957 138.868C278.157 138.868 278.325 138.94 278.461 139.084C278.605 139.228 278.677 139.404 278.677 139.612C278.677 139.82 278.605 139.996 278.461 140.14C278.325 140.284 278.157 140.356 277.957 140.356ZM278.485 141.424V148H277.393V141.424H278.485ZM281.678 142.324V146.2C281.678 146.52 281.746 146.748 281.882 146.884C282.018 147.012 282.254 147.076 282.59 147.076H283.394V148H282.41C281.802 148 281.346 147.86 281.042 147.58C280.738 147.3 280.586 146.84 280.586 146.2V142.324H279.734V141.424H280.586V139.768H281.678V141.424H283.394V142.324H281.678ZM284.309 144.688C284.309 144.016 284.445 143.428 284.717 142.924C284.989 142.412 285.361 142.016 285.833 141.736C286.313 141.456 286.845 141.316 287.429 141.316C288.005 141.316 288.505 141.44 288.929 141.688C289.353 141.936 289.669 142.248 289.877 142.624V141.424H290.981V148H289.877V146.776C289.661 147.16 289.337 147.48 288.905 147.736C288.481 147.984 287.985 148.108 287.417 148.108C286.833 148.108 286.305 147.964 285.833 147.676C285.361 147.388 284.989 146.984 284.717 146.464C284.445 145.944 284.309 145.352 284.309 144.688ZM289.877 144.7C289.877 144.204 289.777 143.772 289.577 143.404C289.377 143.036 289.105 142.756 288.761 142.564C288.425 142.364 288.053 142.264 287.645 142.264C287.237 142.264 286.865 142.36 286.529 142.552C286.193 142.744 285.925 143.024 285.725 143.392C285.525 143.76 285.425 144.192 285.425 144.688C285.425 145.192 285.525 145.632 285.725 146.008C285.925 146.376 286.193 146.66 286.529 146.86C286.865 147.052 287.237 147.148 287.645 147.148C288.053 147.148 288.425 147.052 288.761 146.86C289.105 146.66 289.377 146.376 289.577 146.008C289.777 145.632 289.877 145.196 289.877 144.7ZM302.026 144.46C302.026 144.668 302.014 144.888 301.99 145.12H296.734C296.774 145.768 296.994 146.276 297.394 146.644C297.802 147.004 298.294 147.184 298.87 147.184C299.342 147.184 299.734 147.076 300.046 146.86C300.366 146.636 300.59 146.34 300.718 145.972H301.894C301.718 146.604 301.366 147.12 300.838 147.52C300.31 147.912 299.654 148.108 298.87 148.108C298.246 148.108 297.686 147.968 297.19 147.688C296.702 147.408 296.318 147.012 296.038 146.5C295.758 145.98 295.618 145.38 295.618 144.7C295.618 144.02 295.754 143.424 296.026 142.912C296.298 142.4 296.678 142.008 297.166 141.736C297.662 141.456 298.23 141.316 298.87 141.316C299.494 141.316 300.046 141.452 300.526 141.724C301.006 141.996 301.374 142.372 301.63 142.852C301.894 143.324 302.026 143.86 302.026 144.46ZM300.898 144.232C300.898 143.816 300.806 143.46 300.622 143.164C300.438 142.86 300.186 142.632 299.866 142.48C299.554 142.32 299.206 142.24 298.822 142.24C298.27 142.24 297.798 142.416 297.406 142.768C297.022 143.12 296.802 143.608 296.746 144.232H300.898ZM305.795 148.108C305.291 148.108 304.839 148.024 304.439 147.856C304.039 147.68 303.723 147.44 303.491 147.136C303.259 146.824 303.131 146.468 303.107 146.068H304.235C304.267 146.396 304.419 146.664 304.691 146.872C304.971 147.08 305.335 147.184 305.783 147.184C306.199 147.184 306.527 147.092 306.767 146.908C307.007 146.724 307.127 146.492 307.127 146.212C307.127 145.924 306.999 145.712 306.743 145.576C306.487 145.432 306.091 145.292 305.555 145.156C305.067 145.028 304.667 144.9 304.355 144.772C304.051 144.636 303.787 144.44 303.563 144.184C303.347 143.92 303.239 143.576 303.239 143.152C303.239 142.816 303.339 142.508 303.539 142.228C303.739 141.948 304.023 141.728 304.391 141.568C304.759 141.4 305.179 141.316 305.651 141.316C306.379 141.316 306.967 141.5 307.415 141.868C307.863 142.236 308.103 142.74 308.135 143.38H307.043C307.019 143.036 306.879 142.76 306.623 142.552C306.375 142.344 306.039 142.24 305.615 142.24C305.223 142.24 304.911 142.324 304.679 142.492C304.447 142.66 304.331 142.88 304.331 143.152C304.331 143.368 304.399 143.548 304.535 143.692C304.679 143.828 304.855 143.94 305.063 144.028C305.279 144.108 305.575 144.2 305.951 144.304C306.423 144.432 306.807 144.56 307.103 144.688C307.399 144.808 307.651 144.992 307.859 145.24C308.075 145.488 308.187 145.812 308.195 146.212C308.195 146.572 308.095 146.896 307.895 147.184C307.695 147.472 307.411 147.7 307.043 147.868C306.683 148.028 306.267 148.108 305.795 148.108ZM310.829 142.636C311.045 142.26 311.365 141.948 311.789 141.7C312.221 141.444 312.721 141.316 313.289 141.316C313.873 141.316 314.401 141.456 314.872 141.736C315.352 142.016 315.729 142.412 316.001 142.924C316.273 143.428 316.409 144.016 316.409 144.688C316.409 145.352 316.273 145.944 316.001 146.464C315.729 146.984 315.352 147.388 314.872 147.676C314.401 147.964 313.873 148.108 313.289 148.108C312.729 148.108 312.233 147.984 311.801 147.736C311.377 147.48 311.053 147.164 310.829 146.788V151.12H309.737V141.424H310.829V142.636ZM315.293 144.688C315.293 144.192 315.193 143.76 314.993 143.392C314.793 143.024 314.521 142.744 314.177 142.552C313.841 142.36 313.469 142.264 313.061 142.264C312.661 142.264 312.289 142.364 311.945 142.564C311.609 142.756 311.337 143.04 311.129 143.416C310.929 143.784 310.829 144.212 310.829 144.7C310.829 145.196 310.929 145.632 311.129 146.008C311.337 146.376 311.609 146.66 311.945 146.86C312.289 147.052 312.661 147.148 313.061 147.148C313.469 147.148 313.841 147.052 314.177 146.86C314.521 146.66 314.793 146.376 314.993 146.008C315.193 145.632 315.293 145.192 315.293 144.688ZM323.846 144.46C323.846 144.668 323.834 144.888 323.81 145.12H318.554C318.594 145.768 318.814 146.276 319.214 146.644C319.622 147.004 320.114 147.184 320.69 147.184C321.162 147.184 321.554 147.076 321.866 146.86C322.186 146.636 322.41 146.34 322.538 145.972H323.714C323.538 146.604 323.186 147.12 322.658 147.52C322.13 147.912 321.474 148.108 320.69 148.108C320.066 148.108 319.506 147.968 319.01 147.688C318.522 147.408 318.138 147.012 317.858 146.5C317.578 145.98 317.438 145.38 317.438 144.7C317.438 144.02 317.574 143.424 317.846 142.912C318.118 142.4 318.498 142.008 318.986 141.736C319.482 141.456 320.05 141.316 320.69 141.316C321.314 141.316 321.866 141.452 322.346 141.724C322.826 141.996 323.194 142.372 323.45 142.852C323.714 143.324 323.846 143.86 323.846 144.46ZM322.718 144.232C322.718 143.816 322.626 143.46 322.442 143.164C322.258 142.86 322.006 142.632 321.686 142.48C321.374 142.32 321.026 142.24 320.642 142.24C320.09 142.24 319.618 142.416 319.226 142.768C318.842 143.12 318.622 143.608 318.566 144.232H322.718ZM324.879 144.7C324.879 144.02 325.015 143.428 325.287 142.924C325.559 142.412 325.935 142.016 326.415 141.736C326.903 141.456 327.459 141.316 328.083 141.316C328.891 141.316 329.555 141.512 330.075 141.904C330.603 142.296 330.951 142.84 331.119 143.536H329.943C329.831 143.136 329.611 142.82 329.283 142.588C328.963 142.356 328.563 142.24 328.083 142.24C327.459 142.24 326.955 142.456 326.571 142.888C326.187 143.312 325.995 143.916 325.995 144.7C325.995 145.492 326.187 146.104 326.571 146.536C326.955 146.968 327.459 147.184 328.083 147.184C328.563 147.184 328.963 147.072 329.283 146.848C329.603 146.624 329.823 146.304 329.943 145.888H331.119C330.943 146.56 330.591 147.1 330.063 147.508C329.535 147.908 328.875 148.108 328.083 148.108C327.459 148.108 326.903 147.968 326.415 147.688C325.935 147.408 325.559 147.012 325.287 146.5C325.015 145.988 324.879 145.388 324.879 144.7ZM333.14 140.356C332.932 140.356 332.756 140.284 332.612 140.14C332.468 139.996 332.396 139.82 332.396 139.612C332.396 139.404 332.468 139.228 332.612 139.084C332.756 138.94 332.932 138.868 333.14 138.868C333.34 138.868 333.508 138.94 333.644 139.084C333.788 139.228 333.86 139.404 333.86 139.612C333.86 139.82 333.788 139.996 333.644 140.14C333.508 140.284 333.34 140.356 333.14 140.356ZM333.668 141.424V148H332.576V141.424H333.668ZM335.121 144.688C335.121 144.016 335.257 143.428 335.529 142.924C335.801 142.412 336.173 142.016 336.645 141.736C337.125 141.456 337.657 141.316 338.241 141.316C338.817 141.316 339.317 141.44 339.741 141.688C340.165 141.936 340.481 142.248 340.689 142.624V141.424H341.793V148H340.689V146.776C340.473 147.16 340.149 147.48 339.717 147.736C339.293 147.984 338.797 148.108 338.229 148.108C337.645 148.108 337.117 147.964 336.645 147.676C336.173 147.388 335.801 146.984 335.529 146.464C335.257 145.944 335.121 145.352 335.121 144.688ZM340.689 144.7C340.689 144.204 340.589 143.772 340.389 143.404C340.189 143.036 339.917 142.756 339.573 142.564C339.237 142.364 338.865 142.264 338.457 142.264C338.049 142.264 337.677 142.36 337.341 142.552C337.005 142.744 336.737 143.024 336.537 143.392C336.337 143.76 336.237 144.192 336.237 144.688C336.237 145.192 336.337 145.632 336.537 146.008C336.737 146.376 337.005 146.66 337.341 146.86C337.677 147.052 338.049 147.148 338.457 147.148C338.865 147.148 339.237 147.052 339.573 146.86C339.917 146.66 340.189 146.376 340.389 146.008C340.589 145.632 340.689 145.196 340.689 144.7ZM344.731 139.12V148H343.639V139.12H344.731ZM354.5 141.304C355.012 141.304 355.468 141.412 355.868 141.628C356.268 141.836 356.584 142.152 356.816 142.576C357.048 143 357.164 143.516 357.164 144.124V148H356.084V144.28C356.084 143.624 355.92 143.124 355.592 142.78C355.272 142.428 354.836 142.252 354.284 142.252C353.716 142.252 353.264 142.436 352.928 142.804C352.592 143.164 352.424 143.688 352.424 144.376V148H351.344V144.28C351.344 143.624 351.18 143.124 350.852 142.78C350.532 142.428 350.096 142.252 349.544 142.252C348.976 142.252 348.524 142.436 348.188 142.804C347.852 143.164 347.684 143.688 347.684 144.376V148H346.592V141.424H347.684V142.372C347.9 142.028 348.188 141.764 348.548 141.58C348.916 141.396 349.32 141.304 349.76 141.304C350.312 141.304 350.8 141.428 351.224 141.676C351.648 141.924 351.964 142.288 352.172 142.768C352.356 142.304 352.66 141.944 353.084 141.688C353.508 141.432 353.98 141.304 354.5 141.304ZM364.955 144.46C364.955 144.668 364.943 144.888 364.919 145.12H359.663C359.703 145.768 359.923 146.276 360.323 146.644C360.731 147.004 361.223 147.184 361.799 147.184C362.271 147.184 362.663 147.076 362.975 146.86C363.295 146.636 363.519 146.34 363.647 145.972H364.823C364.647 146.604 364.295 147.12 363.767 147.52C363.239 147.912 362.583 148.108 361.799 148.108C361.175 148.108 360.615 147.968 360.119 147.688C359.631 147.408 359.247 147.012 358.967 146.5C358.687 145.98 358.547 145.38 358.547 144.7C358.547 144.02 358.683 143.424 358.955 142.912C359.227 142.4 359.607 142.008 360.095 141.736C360.591 141.456 361.159 141.316 361.799 141.316C362.423 141.316 362.975 141.452 363.455 141.724C363.935 141.996 364.303 142.372 364.559 142.852C364.823 143.324 364.955 143.86 364.955 144.46ZM363.827 144.232C363.827 143.816 363.735 143.46 363.551 143.164C363.367 142.86 363.115 142.632 362.795 142.48C362.483 142.32 362.135 142.24 361.751 142.24C361.199 142.24 360.727 142.416 360.335 142.768C359.951 143.12 359.731 143.608 359.675 144.232H363.827ZM369.601 141.304C370.401 141.304 371.049 141.548 371.545 142.036C372.041 142.516 372.289 143.212 372.289 144.124V148H371.209V144.28C371.209 143.624 371.045 143.124 370.717 142.78C370.389 142.428 369.941 142.252 369.373 142.252C368.797 142.252 368.337 142.432 367.993 142.792C367.657 143.152 367.489 143.676 367.489 144.364V148H366.397V141.424H367.489V142.36C367.705 142.024 367.997 141.764 368.365 141.58C368.741 141.396 369.153 141.304 369.601 141.304ZM375.404 142.324V146.2C375.404 146.52 375.472 146.748 375.608 146.884C375.744 147.012 375.98 147.076 376.316 147.076H377.12V148H376.136C375.528 148 375.072 147.86 374.768 147.58C374.464 147.3 374.312 146.84 374.312 146.2V142.324H373.46V141.424H374.312V139.768H375.404V141.424H377.12V142.324H375.404ZM384.444 144.46C384.444 144.668 384.432 144.888 384.408 145.12H379.152C379.192 145.768 379.412 146.276 379.812 146.644C380.22 147.004 380.712 147.184 381.288 147.184C381.76 147.184 382.152 147.076 382.464 146.86C382.784 146.636 383.008 146.34 383.136 145.972H384.312C384.136 146.604 383.784 147.12 383.256 147.52C382.728 147.912 382.072 148.108 381.288 148.108C380.664 148.108 380.104 147.968 379.608 147.688C379.12 147.408 378.736 147.012 378.456 146.5C378.176 145.98 378.036 145.38 378.036 144.7C378.036 144.02 378.172 143.424 378.444 142.912C378.716 142.4 379.096 142.008 379.584 141.736C380.08 141.456 380.648 141.316 381.288 141.316C381.912 141.316 382.464 141.452 382.944 141.724C383.424 141.996 383.792 142.372 384.048 142.852C384.312 143.324 384.444 143.86 384.444 144.46ZM383.316 144.232C383.316 143.816 383.224 143.46 383.04 143.164C382.856 142.86 382.604 142.632 382.284 142.48C381.972 142.32 381.624 142.24 381.24 142.24C380.688 142.24 380.216 142.416 379.824 142.768C379.44 143.12 379.22 143.608 379.164 144.232H383.316ZM390.176 142.636C390.392 142.26 390.712 141.948 391.136 141.7C391.568 141.444 392.068 141.316 392.636 141.316C393.22 141.316 393.748 141.456 394.22 141.736C394.7 142.016 395.076 142.412 395.348 142.924C395.62 143.428 395.756 144.016 395.756 144.688C395.756 145.352 395.62 145.944 395.348 146.464C395.076 146.984 394.7 147.388 394.22 147.676C393.748 147.964 393.22 148.108 392.636 148.108C392.076 148.108 391.58 147.984 391.148 147.736C390.724 147.48 390.4 147.164 390.176 146.788V151.12H389.084V141.424H390.176V142.636ZM394.64 144.688C394.64 144.192 394.54 143.76 394.34 143.392C394.14 143.024 393.868 142.744 393.524 142.552C393.188 142.36 392.816 142.264 392.408 142.264C392.008 142.264 391.636 142.364 391.292 142.564C390.956 142.756 390.684 143.04 390.476 143.416C390.276 143.784 390.176 144.212 390.176 144.7C390.176 145.196 390.276 145.632 390.476 146.008C390.684 146.376 390.956 146.66 391.292 146.86C391.636 147.052 392.008 147.148 392.408 147.148C392.816 147.148 393.188 147.052 393.524 146.86C393.868 146.66 394.14 146.376 394.34 146.008C394.54 145.632 394.64 145.192 394.64 144.688ZM396.786 144.688C396.786 144.016 396.922 143.428 397.194 142.924C397.466 142.412 397.838 142.016 398.31 141.736C398.79 141.456 399.322 141.316 399.906 141.316C400.482 141.316 400.982 141.44 401.406 141.688C401.83 141.936 402.146 142.248 402.354 142.624V141.424H403.458V148H402.354V146.776C402.138 147.16 401.814 147.48 401.382 147.736C400.958 147.984 400.462 148.108 399.894 148.108C399.31 148.108 398.782 147.964 398.31 147.676C397.838 147.388 397.466 146.984 397.194 146.464C396.922 145.944 396.786 145.352 396.786 144.688ZM402.354 144.7C402.354 144.204 402.254 143.772 402.054 143.404C401.854 143.036 401.582 142.756 401.238 142.564C400.902 142.364 400.53 142.264 400.122 142.264C399.714 142.264 399.342 142.36 399.006 142.552C398.67 142.744 398.402 143.024 398.202 143.392C398.002 143.76 397.902 144.192 397.902 144.688C397.902 145.192 398.002 145.632 398.202 146.008C398.402 146.376 398.67 146.66 399.006 146.86C399.342 147.052 399.714 147.148 400.122 147.148C400.53 147.148 400.902 147.052 401.238 146.86C401.582 146.66 401.854 146.376 402.054 146.008C402.254 145.632 402.354 145.196 402.354 144.7ZM406.395 142.492C406.587 142.116 406.859 141.824 407.211 141.616C407.571 141.408 408.007 141.304 408.519 141.304V142.432H408.231C407.007 142.432 406.395 143.096 406.395 144.424V148H405.303V141.424H406.395V142.492ZM409.371 144.688C409.371 144.016 409.507 143.428 409.779 142.924C410.051 142.412 410.423 142.016 410.895 141.736C411.375 141.456 411.907 141.316 412.491 141.316C413.067 141.316 413.567 141.44 413.991 141.688C414.415 141.936 414.731 142.248 414.939 142.624V141.424H416.043V148H414.939V146.776C414.723 147.16 414.399 147.48 413.967 147.736C413.543 147.984 413.047 148.108 412.479 148.108C411.895 148.108 411.367 147.964 410.895 147.676C410.423 147.388 410.051 146.984 409.779 146.464C409.507 145.944 409.371 145.352 409.371 144.688ZM414.939 144.7C414.939 144.204 414.839 143.772 414.639 143.404C414.439 143.036 414.167 142.756 413.823 142.564C413.487 142.364 413.115 142.264 412.707 142.264C412.299 142.264 411.927 142.36 411.591 142.552C411.255 142.744 410.987 143.024 410.787 143.392C410.587 143.76 410.487 144.192 410.487 144.688C410.487 145.192 410.587 145.632 410.787 146.008C410.987 146.376 411.255 146.66 411.591 146.86C411.927 147.052 412.299 147.148 412.707 147.148C413.115 147.148 413.487 147.052 413.823 146.86C414.167 146.66 414.439 146.376 414.639 146.008C414.839 145.632 414.939 145.196 414.939 144.7ZM152.426 160.688C152.426 160.016 152.562 159.428 152.834 158.924C153.106 158.412 153.478 158.016 153.95 157.736C154.43 157.456 154.962 157.316 155.546 157.316C156.122 157.316 156.622 157.44 157.046 157.688C157.47 157.936 157.786 158.248 157.994 158.624V157.424H159.098V164H157.994V162.776C157.778 163.16 157.454 163.48 157.022 163.736C156.598 163.984 156.102 164.108 155.534 164.108C154.95 164.108 154.422 163.964 153.95 163.676C153.478 163.388 153.106 162.984 152.834 162.464C152.562 161.944 152.426 161.352 152.426 160.688ZM157.994 160.7C157.994 160.204 157.894 159.772 157.694 159.404C157.494 159.036 157.222 158.756 156.878 158.564C156.542 158.364 156.17 158.264 155.762 158.264C155.354 158.264 154.982 158.36 154.646 158.552C154.31 158.744 154.042 159.024 153.842 159.392C153.642 159.76 153.542 160.192 153.542 160.688C153.542 161.192 153.642 161.632 153.842 162.008C154.042 162.376 154.31 162.66 154.646 162.86C154.982 163.052 155.354 163.148 155.762 163.148C156.17 163.148 156.542 163.052 156.878 162.86C157.222 162.66 157.494 162.376 157.694 162.008C157.894 161.632 157.994 161.196 157.994 160.7ZM161.532 156.356C161.324 156.356 161.148 156.284 161.004 156.14C160.868 155.996 160.8 155.82 160.8 155.612C160.8 155.404 160.868 155.228 161.004 155.084C161.148 154.94 161.324 154.868 161.532 154.868C161.74 154.868 161.912 154.94 162.048 155.084C162.192 155.228 162.264 155.404 162.264 155.612C162.264 155.82 162.192 155.996 162.048 156.14C161.912 156.284 161.74 156.356 161.532 156.356ZM162.072 165.428C162.072 166.012 161.924 166.44 161.628 166.712C161.332 166.984 160.9 167.12 160.332 167.12H159.696V166.196H160.152C160.456 166.196 160.668 166.136 160.788 166.016C160.916 165.896 160.98 165.692 160.98 165.404V157.424H162.072V165.428ZM169.752 157.424V164H168.66V163.028C168.452 163.364 168.16 163.628 167.784 163.82C167.416 164.004 167.008 164.096 166.56 164.096C166.048 164.096 165.588 163.992 165.18 163.784C164.772 163.568 164.448 163.248 164.208 162.824C163.976 162.4 163.86 161.884 163.86 161.276V157.424H164.94V161.132C164.94 161.78 165.104 162.28 165.432 162.632C165.76 162.976 166.208 163.148 166.776 163.148C167.36 163.148 167.82 162.968 168.156 162.608C168.492 162.248 168.66 161.724 168.66 161.036V157.424H169.752ZM171.188 160.688C171.188 160.016 171.324 159.428 171.596 158.924C171.868 158.412 172.24 158.016 172.712 157.736C173.192 157.456 173.728 157.316 174.32 157.316C174.832 157.316 175.308 157.436 175.748 157.676C176.188 157.908 176.524 158.216 176.756 158.6V155.12H177.86V164H176.756V162.764C176.54 163.156 176.22 163.48 175.796 163.736C175.372 163.984 174.876 164.108 174.308 164.108C173.724 164.108 173.192 163.964 172.712 163.676C172.24 163.388 171.868 162.984 171.596 162.464C171.324 161.944 171.188 161.352 171.188 160.688ZM176.756 160.7C176.756 160.204 176.656 159.772 176.456 159.404C176.256 159.036 175.984 158.756 175.64 158.564C175.304 158.364 174.932 158.264 174.524 158.264C174.116 158.264 173.744 158.36 173.408 158.552C173.072 158.744 172.804 159.024 172.604 159.392C172.404 159.76 172.304 160.192 172.304 160.688C172.304 161.192 172.404 161.632 172.604 162.008C172.804 162.376 173.072 162.66 173.408 162.86C173.744 163.052 174.116 163.148 174.524 163.148C174.932 163.148 175.304 163.052 175.64 162.86C175.984 162.66 176.256 162.376 176.456 162.008C176.656 161.632 176.756 161.196 176.756 160.7ZM179.297 160.688C179.297 160.016 179.433 159.428 179.705 158.924C179.977 158.412 180.349 158.016 180.821 157.736C181.301 157.456 181.833 157.316 182.417 157.316C182.993 157.316 183.493 157.44 183.917 157.688C184.341 157.936 184.657 158.248 184.865 158.624V157.424H185.969V164H184.865V162.776C184.649 163.16 184.325 163.48 183.893 163.736C183.469 163.984 182.973 164.108 182.405 164.108C181.821 164.108 181.293 163.964 180.821 163.676C180.349 163.388 179.977 162.984 179.705 162.464C179.433 161.944 179.297 161.352 179.297 160.688ZM184.865 160.7C184.865 160.204 184.765 159.772 184.565 159.404C184.365 159.036 184.093 158.756 183.749 158.564C183.413 158.364 183.041 158.264 182.633 158.264C182.225 158.264 181.853 158.36 181.517 158.552C181.181 158.744 180.913 159.024 180.713 159.392C180.513 159.76 180.413 160.192 180.413 160.688C180.413 161.192 180.513 161.632 180.713 162.008C180.913 162.376 181.181 162.66 181.517 162.86C181.853 163.052 182.225 163.148 182.633 163.148C183.041 163.148 183.413 163.052 183.749 162.86C184.093 162.66 184.365 162.376 184.565 162.008C184.765 161.632 184.865 161.196 184.865 160.7ZM188.907 158.492C189.099 158.116 189.371 157.824 189.723 157.616C190.083 157.408 190.519 157.304 191.031 157.304V158.432H190.743C189.519 158.432 188.907 159.096 188.907 160.424V164H187.815V157.424H188.907V158.492ZM195.082 160.688C195.082 160.016 195.218 159.428 195.49 158.924C195.762 158.412 196.134 158.016 196.606 157.736C197.086 157.456 197.618 157.316 198.202 157.316C198.778 157.316 199.278 157.44 199.702 157.688C200.126 157.936 200.442 158.248 200.65 158.624V157.424H201.754V164H200.65V162.776C200.434 163.16 200.11 163.48 199.678 163.736C199.254 163.984 198.758 164.108 198.19 164.108C197.606 164.108 197.078 163.964 196.606 163.676C196.134 163.388 195.762 162.984 195.49 162.464C195.218 161.944 195.082 161.352 195.082 160.688ZM200.65 160.7C200.65 160.204 200.55 159.772 200.35 159.404C200.15 159.036 199.878 158.756 199.534 158.564C199.198 158.364 198.826 158.264 198.418 158.264C198.01 158.264 197.638 158.36 197.302 158.552C196.966 158.744 196.698 159.024 196.498 159.392C196.298 159.76 196.198 160.192 196.198 160.688C196.198 161.192 196.298 161.632 196.498 162.008C196.698 162.376 196.966 162.66 197.302 162.86C197.638 163.052 198.01 163.148 198.418 163.148C198.826 163.148 199.198 163.052 199.534 162.86C199.878 162.66 200.15 162.376 200.35 162.008C200.55 161.632 200.65 161.196 200.65 160.7ZM209.247 162.992L211.287 157.424H212.451L209.871 164H208.599L206.019 157.424H207.195L209.247 162.992ZM216.394 164.108C215.778 164.108 215.218 163.968 214.714 163.688C214.218 163.408 213.826 163.012 213.538 162.5C213.258 161.98 213.118 161.38 213.118 160.7C213.118 160.028 213.262 159.436 213.55 158.924C213.846 158.404 214.246 158.008 214.75 157.736C215.254 157.456 215.818 157.316 216.442 157.316C217.066 157.316 217.63 157.456 218.134 157.736C218.638 158.008 219.034 158.4 219.322 158.912C219.618 159.424 219.766 160.02 219.766 160.7C219.766 161.38 219.614 161.98 219.31 162.5C219.014 163.012 218.61 163.408 218.098 163.688C217.586 163.968 217.018 164.108 216.394 164.108ZM216.394 163.148C216.786 163.148 217.154 163.056 217.498 162.872C217.842 162.688 218.118 162.412 218.326 162.044C218.542 161.676 218.65 161.228 218.65 160.7C218.65 160.172 218.546 159.724 218.338 159.356C218.13 158.988 217.858 158.716 217.522 158.54C217.186 158.356 216.822 158.264 216.43 158.264C216.03 158.264 215.662 158.356 215.326 158.54C214.998 158.716 214.734 158.988 214.534 159.356C214.334 159.724 214.234 160.172 214.234 160.7C214.234 161.236 214.33 161.688 214.522 162.056C214.722 162.424 214.986 162.7 215.314 162.884C215.642 163.06 216.002 163.148 216.394 163.148ZM220.793 160.7C220.793 160.02 220.929 159.428 221.201 158.924C221.473 158.412 221.849 158.016 222.329 157.736C222.817 157.456 223.373 157.316 223.997 157.316C224.805 157.316 225.469 157.512 225.989 157.904C226.517 158.296 226.865 158.84 227.033 159.536H225.857C225.745 159.136 225.525 158.82 225.197 158.588C224.877 158.356 224.477 158.24 223.997 158.24C223.373 158.24 222.869 158.456 222.485 158.888C222.101 159.312 221.909 159.916 221.909 160.7C221.909 161.492 222.101 162.104 222.485 162.536C222.869 162.968 223.373 163.184 223.997 163.184C224.477 163.184 224.877 163.072 225.197 162.848C225.517 162.624 225.737 162.304 225.857 161.888H227.033C226.857 162.56 226.505 163.1 225.977 163.508C225.449 163.908 224.789 164.108 223.997 164.108C223.373 164.108 222.817 163.968 222.329 163.688C221.849 163.408 221.473 163.012 221.201 162.5C220.929 161.988 220.793 161.388 220.793 160.7ZM234.49 160.46C234.49 160.668 234.478 160.888 234.454 161.12H229.198C229.238 161.768 229.458 162.276 229.858 162.644C230.266 163.004 230.758 163.184 231.334 163.184C231.806 163.184 232.198 163.076 232.51 162.86C232.83 162.636 233.054 162.34 233.182 161.972H234.358C234.182 162.604 233.83 163.12 233.302 163.52C232.774 163.912 232.118 164.108 231.334 164.108C230.71 164.108 230.15 163.968 229.654 163.688C229.166 163.408 228.782 163.012 228.502 162.5C228.222 161.98 228.082 161.38 228.082 160.7C228.082 160.02 228.218 159.424 228.49 158.912C228.762 158.4 229.142 158.008 229.63 157.736C230.126 157.456 230.694 157.316 231.334 157.316C231.958 157.316 232.51 157.452 232.99 157.724C233.47 157.996 233.838 158.372 234.094 158.852C234.358 159.324 234.49 159.86 234.49 160.46ZM233.362 160.232C233.362 159.816 233.27 159.46 233.086 159.164C232.902 158.86 232.65 158.632 232.33 158.48C232.018 158.32 231.67 158.24 231.286 158.24C230.734 158.24 230.262 158.416 229.87 158.768C229.486 159.12 229.266 159.608 229.21 160.232H233.362ZM231.298 155.816L229.63 156.836V155.972L231.298 154.976L232.954 155.972V156.836L231.298 155.816ZM238.723 160.688C238.723 160.016 238.859 159.428 239.131 158.924C239.403 158.412 239.775 158.016 240.247 157.736C240.727 157.456 241.259 157.316 241.843 157.316C242.419 157.316 242.919 157.44 243.343 157.688C243.767 157.936 244.083 158.248 244.291 158.624V157.424H245.395V164H244.291V162.776C244.075 163.16 243.751 163.48 243.319 163.736C242.895 163.984 242.399 164.108 241.831 164.108C241.247 164.108 240.719 163.964 240.247 163.676C239.775 163.388 239.403 162.984 239.131 162.464C238.859 161.944 238.723 161.352 238.723 160.688ZM244.291 160.7C244.291 160.204 244.191 159.772 243.991 159.404C243.791 159.036 243.519 158.756 243.175 158.564C242.839 158.364 242.467 158.264 242.059 158.264C241.651 158.264 241.279 158.36 240.943 158.552C240.607 158.744 240.339 159.024 240.139 159.392C239.939 159.76 239.839 160.192 239.839 160.688C239.839 161.192 239.939 161.632 240.139 162.008C240.339 162.376 240.607 162.66 240.943 162.86C241.279 163.052 241.651 163.148 242.059 163.148C242.467 163.148 242.839 163.052 243.175 162.86C243.519 162.66 243.791 162.376 243.991 162.008C244.191 161.632 244.291 161.196 244.291 160.7ZM250.032 160.7C250.032 160.02 250.168 159.428 250.44 158.924C250.712 158.412 251.088 158.016 251.568 157.736C252.056 157.456 252.612 157.316 253.236 157.316C254.044 157.316 254.708 157.512 255.228 157.904C255.756 158.296 256.104 158.84 256.272 159.536H255.096C254.984 159.136 254.764 158.82 254.436 158.588C254.116 158.356 253.716 158.24 253.236 158.24C252.612 158.24 252.108 158.456 251.724 158.888C251.34 159.312 251.148 159.916 251.148 160.7C251.148 161.492 251.34 162.104 251.724 162.536C252.108 162.968 252.612 163.184 253.236 163.184C253.716 163.184 254.116 163.072 254.436 162.848C254.756 162.624 254.976 162.304 255.096 161.888H256.272C256.096 162.56 255.744 163.1 255.216 163.508C254.688 163.908 254.028 164.108 253.236 164.108C252.612 164.108 252.056 163.968 251.568 163.688C251.088 163.408 250.712 163.012 250.44 162.5C250.168 161.988 250.032 161.388 250.032 160.7ZM260.597 164.108C259.981 164.108 259.421 163.968 258.917 163.688C258.421 163.408 258.029 163.012 257.741 162.5C257.461 161.98 257.321 161.38 257.321 160.7C257.321 160.028 257.465 159.436 257.753 158.924C258.049 158.404 258.449 158.008 258.953 157.736C259.457 157.456 260.021 157.316 260.645 157.316C261.269 157.316 261.833 157.456 262.337 157.736C262.841 158.008 263.237 158.4 263.525 158.912C263.821 159.424 263.969 160.02 263.969 160.7C263.969 161.38 263.817 161.98 263.513 162.5C263.217 163.012 262.813 163.408 262.301 163.688C261.789 163.968 261.221 164.108 260.597 164.108ZM260.597 163.148C260.989 163.148 261.357 163.056 261.701 162.872C262.045 162.688 262.321 162.412 262.529 162.044C262.745 161.676 262.853 161.228 262.853 160.7C262.853 160.172 262.749 159.724 262.541 159.356C262.333 158.988 262.061 158.716 261.725 158.54C261.389 158.356 261.025 158.264 260.633 158.264C260.233 158.264 259.865 158.356 259.529 158.54C259.201 158.716 258.937 158.988 258.737 159.356C258.537 159.724 258.437 160.172 258.437 160.7C258.437 161.236 258.533 161.688 258.725 162.056C258.925 162.424 259.189 162.7 259.517 162.884C259.845 163.06 260.205 163.148 260.597 163.148ZM273.312 157.304C273.824 157.304 274.28 157.412 274.68 157.628C275.08 157.836 275.396 158.152 275.628 158.576C275.86 159 275.976 159.516 275.976 160.124V164H274.896V160.28C274.896 159.624 274.732 159.124 274.404 158.78C274.084 158.428 273.648 158.252 273.096 158.252C272.528 158.252 272.076 158.436 271.74 158.804C271.404 159.164 271.236 159.688 271.236 160.376V164H270.156V160.28C270.156 159.624 269.992 159.124 269.664 158.78C269.344 158.428 268.908 158.252 268.356 158.252C267.788 158.252 267.336 158.436 267 158.804C266.664 159.164 266.496 159.688 266.496 160.376V164H265.404V157.424H266.496V158.372C266.712 158.028 267 157.764 267.36 157.58C267.728 157.396 268.132 157.304 268.572 157.304C269.124 157.304 269.612 157.428 270.036 157.676C270.46 157.924 270.776 158.288 270.984 158.768C271.168 158.304 271.472 157.944 271.896 157.688C272.32 157.432 272.792 157.304 273.312 157.304ZM283.768 160.46C283.768 160.668 283.756 160.888 283.732 161.12H278.476C278.516 161.768 278.736 162.276 279.136 162.644C279.544 163.004 280.036 163.184 280.612 163.184C281.084 163.184 281.476 163.076 281.788 162.86C282.108 162.636 282.332 162.34 282.46 161.972H283.636C283.46 162.604 283.108 163.12 282.58 163.52C282.052 163.912 281.396 164.108 280.612 164.108C279.988 164.108 279.428 163.968 278.932 163.688C278.444 163.408 278.06 163.012 277.78 162.5C277.5 161.98 277.36 161.38 277.36 160.7C277.36 160.02 277.496 159.424 277.768 158.912C278.04 158.4 278.42 158.008 278.908 157.736C279.404 157.456 279.972 157.316 280.612 157.316C281.236 157.316 281.788 157.452 282.268 157.724C282.748 157.996 283.116 158.372 283.372 158.852C283.636 159.324 283.768 159.86 283.768 160.46ZM282.64 160.232C282.64 159.816 282.548 159.46 282.364 159.164C282.18 158.86 281.928 158.632 281.608 158.48C281.296 158.32 280.948 158.24 280.564 158.24C280.012 158.24 279.54 158.416 279.148 158.768C278.764 159.12 278.544 159.608 278.488 160.232H282.64ZM288.005 163.184C288.485 163.184 288.885 163.072 289.205 162.848C289.525 162.624 289.745 162.304 289.865 161.888H291.041C290.881 162.512 290.565 163.024 290.093 163.424C289.629 163.816 289.045 164.04 288.341 164.096V164.696C288.813 164.688 289.189 164.788 289.469 164.996C289.749 165.204 289.889 165.5 289.889 165.884C289.889 166.26 289.753 166.56 289.481 166.784C289.209 167.008 288.857 167.12 288.425 167.12H287.045V166.412H288.209C288.473 166.412 288.665 166.372 288.785 166.292C288.913 166.212 288.977 166.076 288.977 165.884C288.977 165.7 288.913 165.568 288.785 165.488C288.665 165.408 288.473 165.368 288.209 165.368H287.609V164.084C287.057 164.028 286.569 163.856 286.145 163.568C285.721 163.272 285.389 162.88 285.149 162.392C284.917 161.896 284.801 161.332 284.801 160.7C284.801 160.02 284.937 159.428 285.209 158.924C285.481 158.412 285.857 158.016 286.337 157.736C286.825 157.456 287.381 157.316 288.005 157.316C288.813 157.316 289.477 157.512 289.997 157.904C290.525 158.296 290.873 158.84 291.041 159.536H289.865C289.753 159.136 289.533 158.82 289.205 158.588C288.885 158.356 288.485 158.24 288.005 158.24C287.381 158.24 286.877 158.456 286.493 158.888C286.109 159.312 285.917 159.916 285.917 160.7C285.917 161.492 286.109 162.104 286.493 162.536C286.877 162.968 287.381 163.184 288.005 163.184ZM292.09 160.688C292.09 160.016 292.226 159.428 292.498 158.924C292.77 158.412 293.142 158.016 293.614 157.736C294.094 157.456 294.626 157.316 295.21 157.316C295.786 157.316 296.286 157.44 296.71 157.688C297.134 157.936 297.45 158.248 297.658 158.624V157.424H298.762V164H297.658V162.776C297.442 163.16 297.118 163.48 296.686 163.736C296.262 163.984 295.766 164.108 295.198 164.108C294.614 164.108 294.086 163.964 293.614 163.676C293.142 163.388 292.77 162.984 292.498 162.464C292.226 161.944 292.09 161.352 292.09 160.688ZM297.658 160.7C297.658 160.204 297.558 159.772 297.358 159.404C297.158 159.036 296.886 158.756 296.542 158.564C296.206 158.364 295.834 158.264 295.426 158.264C295.018 158.264 294.646 158.36 294.31 158.552C293.974 158.744 293.706 159.024 293.506 159.392C293.306 159.76 293.206 160.192 293.206 160.688C293.206 161.192 293.306 161.632 293.506 162.008C293.706 162.376 293.974 162.66 294.31 162.86C294.646 163.052 295.018 163.148 295.426 163.148C295.834 163.148 296.206 163.052 296.542 162.86C296.886 162.66 297.158 162.376 297.358 162.008C297.558 161.632 297.658 161.196 297.658 160.7ZM301.7 158.492C301.892 158.116 302.164 157.824 302.516 157.616C302.876 157.408 303.312 157.304 303.824 157.304V158.432H303.536C302.312 158.432 301.7 159.096 301.7 160.424V164H300.608V157.424H301.7V158.492ZM310.611 164.108C310.107 164.108 309.655 164.024 309.255 163.856C308.855 163.68 308.539 163.44 308.307 163.136C308.075 162.824 307.947 162.468 307.923 162.068H309.051C309.083 162.396 309.235 162.664 309.507 162.872C309.787 163.08 310.151 163.184 310.599 163.184C311.015 163.184 311.343 163.092 311.583 162.908C311.823 162.724 311.943 162.492 311.943 162.212C311.943 161.924 311.815 161.712 311.559 161.576C311.303 161.432 310.907 161.292 310.371 161.156C309.883 161.028 309.483 160.9 309.171 160.772C308.867 160.636 308.603 160.44 308.379 160.184C308.163 159.92 308.055 159.576 308.055 159.152C308.055 158.816 308.155 158.508 308.355 158.228C308.555 157.948 308.839 157.728 309.207 157.568C309.575 157.4 309.995 157.316 310.467 157.316C311.195 157.316 311.783 157.5 312.231 157.868C312.679 158.236 312.919 158.74 312.951 159.38H311.859C311.835 159.036 311.695 158.76 311.439 158.552C311.191 158.344 310.855 158.24 310.431 158.24C310.039 158.24 309.727 158.324 309.495 158.492C309.263 158.66 309.147 158.88 309.147 159.152C309.147 159.368 309.215 159.548 309.351 159.692C309.495 159.828 309.671 159.94 309.879 160.028C310.095 160.108 310.391 160.2 310.767 160.304C311.239 160.432 311.623 160.56 311.919 160.688C312.215 160.808 312.467 160.992 312.675 161.24C312.891 161.488 313.003 161.812 313.011 162.212C313.011 162.572 312.911 162.896 312.711 163.184C312.511 163.472 312.227 163.7 311.859 163.868C311.499 164.028 311.083 164.108 310.611 164.108ZM320.385 157.424V164H319.293V163.028C319.085 163.364 318.793 163.628 318.417 163.82C318.049 164.004 317.641 164.096 317.193 164.096C316.681 164.096 316.221 163.992 315.813 163.784C315.405 163.568 315.081 163.248 314.841 162.824C314.609 162.4 314.493 161.884 314.493 161.276V157.424H315.573V161.132C315.573 161.78 315.737 162.28 316.065 162.632C316.393 162.976 316.841 163.148 317.409 163.148C317.993 163.148 318.453 162.968 318.789 162.608C319.125 162.248 319.293 161.724 319.293 161.036V157.424H320.385ZM321.821 160.688C321.821 160.016 321.957 159.428 322.229 158.924C322.501 158.412 322.873 158.016 323.345 157.736C323.825 157.456 324.357 157.316 324.941 157.316C325.517 157.316 326.017 157.44 326.441 157.688C326.865 157.936 327.181 158.248 327.389 158.624V157.424H328.493V164H327.389V162.776C327.173 163.16 326.849 163.48 326.417 163.736C325.993 163.984 325.497 164.108 324.929 164.108C324.345 164.108 323.817 163.964 323.345 163.676C322.873 163.388 322.501 162.984 322.229 162.464C321.957 161.944 321.821 161.352 321.821 160.688ZM327.389 160.7C327.389 160.204 327.289 159.772 327.089 159.404C326.889 159.036 326.617 158.756 326.273 158.564C325.937 158.364 325.565 158.264 325.157 158.264C324.749 158.264 324.377 158.36 324.041 158.552C323.705 158.744 323.437 159.024 323.237 159.392C323.037 159.76 322.937 160.192 322.937 160.688C322.937 161.192 323.037 161.632 323.237 162.008C323.437 162.376 323.705 162.66 324.041 162.86C324.377 163.052 324.749 163.148 325.157 163.148C325.565 163.148 325.937 163.052 326.273 162.86C326.617 162.66 326.889 162.376 327.089 162.008C327.289 161.632 327.389 161.196 327.389 160.7ZM334.629 158.636C334.845 158.26 335.165 157.948 335.589 157.7C336.021 157.444 336.521 157.316 337.089 157.316C337.673 157.316 338.201 157.456 338.673 157.736C339.153 158.016 339.529 158.412 339.801 158.924C340.073 159.428 340.209 160.016 340.209 160.688C340.209 161.352 340.073 161.944 339.801 162.464C339.529 162.984 339.153 163.388 338.673 163.676C338.201 163.964 337.673 164.108 337.089 164.108C336.529 164.108 336.033 163.984 335.601 163.736C335.177 163.48 334.853 163.164 334.629 162.788V167.12H333.537V157.424H334.629V158.636ZM339.093 160.688C339.093 160.192 338.993 159.76 338.793 159.392C338.593 159.024 338.321 158.744 337.977 158.552C337.641 158.36 337.269 158.264 336.861 158.264C336.461 158.264 336.089 158.364 335.745 158.564C335.409 158.756 335.137 159.04 334.929 159.416C334.729 159.784 334.629 160.212 334.629 160.7C334.629 161.196 334.729 161.632 334.929 162.008C335.137 162.376 335.409 162.66 335.745 162.86C336.089 163.052 336.461 163.148 336.861 163.148C337.269 163.148 337.641 163.052 337.977 162.86C338.321 162.66 338.593 162.376 338.793 162.008C338.993 161.632 339.093 161.192 339.093 160.688ZM342.739 158.492C342.931 158.116 343.203 157.824 343.555 157.616C343.915 157.408 344.351 157.304 344.863 157.304V158.432H344.575C343.351 158.432 342.739 159.096 342.739 160.424V164H341.647V157.424H342.739V158.492ZM346.687 156.356C346.479 156.356 346.303 156.284 346.159 156.14C346.015 155.996 345.943 155.82 345.943 155.612C345.943 155.404 346.015 155.228 346.159 155.084C346.303 154.94 346.479 154.868 346.687 154.868C346.887 154.868 347.055 154.94 347.191 155.084C347.335 155.228 347.407 155.404 347.407 155.612C347.407 155.82 347.335 155.996 347.191 156.14C347.055 156.284 346.887 156.356 346.687 156.356ZM347.215 157.424V164H346.123V157.424H347.215ZM356.984 157.304C357.496 157.304 357.952 157.412 358.352 157.628C358.752 157.836 359.068 158.152 359.3 158.576C359.532 159 359.648 159.516 359.648 160.124V164H358.568V160.28C358.568 159.624 358.404 159.124 358.076 158.78C357.756 158.428 357.32 158.252 356.768 158.252C356.2 158.252 355.748 158.436 355.412 158.804C355.076 159.164 354.908 159.688 354.908 160.376V164H353.828V160.28C353.828 159.624 353.664 159.124 353.336 158.78C353.016 158.428 352.58 158.252 352.028 158.252C351.46 158.252 351.008 158.436 350.672 158.804C350.336 159.164 350.168 159.688 350.168 160.376V164H349.076V157.424H350.168V158.372C350.384 158.028 350.672 157.764 351.032 157.58C351.4 157.396 351.804 157.304 352.244 157.304C352.796 157.304 353.284 157.428 353.708 157.676C354.132 157.924 354.448 158.288 354.656 158.768C354.84 158.304 355.144 157.944 355.568 157.688C355.992 157.432 356.464 157.304 356.984 157.304ZM367.44 160.46C367.44 160.668 367.428 160.888 367.404 161.12H362.148C362.188 161.768 362.408 162.276 362.808 162.644C363.216 163.004 363.708 163.184 364.284 163.184C364.756 163.184 365.148 163.076 365.46 162.86C365.78 162.636 366.004 162.34 366.132 161.972H367.308C367.132 162.604 366.78 163.12 366.252 163.52C365.724 163.912 365.068 164.108 364.284 164.108C363.66 164.108 363.1 163.968 362.604 163.688C362.116 163.408 361.732 163.012 361.452 162.5C361.172 161.98 361.032 161.38 361.032 160.7C361.032 160.02 361.168 159.424 361.44 158.912C361.712 158.4 362.092 158.008 362.58 157.736C363.076 157.456 363.644 157.316 364.284 157.316C364.908 157.316 365.46 157.452 365.94 157.724C366.42 157.996 366.788 158.372 367.044 158.852C367.308 159.324 367.44 159.86 367.44 160.46ZM366.312 160.232C366.312 159.816 366.22 159.46 366.036 159.164C365.852 158.86 365.6 158.632 365.28 158.48C364.968 158.32 364.62 158.24 364.236 158.24C363.684 158.24 363.212 158.416 362.82 158.768C362.436 159.12 362.216 159.608 362.16 160.232H366.312ZM369.445 156.356C369.237 156.356 369.061 156.284 368.917 156.14C368.773 155.996 368.701 155.82 368.701 155.612C368.701 155.404 368.773 155.228 368.917 155.084C369.061 154.94 369.237 154.868 369.445 154.868C369.645 154.868 369.813 154.94 369.949 155.084C370.093 155.228 370.165 155.404 370.165 155.612C370.165 155.82 370.093 155.996 369.949 156.14C369.813 156.284 369.645 156.356 369.445 156.356ZM369.973 157.424V164H368.881V157.424H369.973ZM372.926 158.492C373.118 158.116 373.39 157.824 373.742 157.616C374.102 157.408 374.538 157.304 375.05 157.304V158.432H374.762C373.538 158.432 372.926 159.096 372.926 160.424V164H371.834V157.424H372.926V158.492ZM375.903 160.688C375.903 160.016 376.039 159.428 376.311 158.924C376.583 158.412 376.955 158.016 377.427 157.736C377.907 157.456 378.439 157.316 379.023 157.316C379.599 157.316 380.099 157.44 380.523 157.688C380.947 157.936 381.263 158.248 381.471 158.624V157.424H382.575V164H381.471V162.776C381.255 163.16 380.931 163.48 380.499 163.736C380.075 163.984 379.579 164.108 379.011 164.108C378.427 164.108 377.899 163.964 377.427 163.676C376.955 163.388 376.583 162.984 376.311 162.464C376.039 161.944 375.903 161.352 375.903 160.688ZM381.471 160.7C381.471 160.204 381.371 159.772 381.171 159.404C380.971 159.036 380.699 158.756 380.355 158.564C380.019 158.364 379.647 158.264 379.239 158.264C378.831 158.264 378.459 158.36 378.123 158.552C377.787 158.744 377.519 159.024 377.319 159.392C377.119 159.76 377.019 160.192 377.019 160.688C377.019 161.192 377.119 161.632 377.319 162.008C377.519 162.376 377.787 162.66 378.123 162.86C378.459 163.052 378.831 163.148 379.239 163.148C379.647 163.148 380.019 163.052 380.355 162.86C380.699 162.66 380.971 162.376 381.171 162.008C381.371 161.632 381.471 161.196 381.471 160.7ZM396.103 155.696V164H395.011V157.808L392.251 164H391.483L388.711 157.796V164H387.619V155.696H388.795L391.867 162.56L394.939 155.696H396.103ZM404.867 155.636L401.711 164H400.451L397.295 155.636H398.459L401.087 162.848L403.715 155.636H404.867ZM411.657 158.084C411.657 158.78 411.417 159.36 410.937 159.824C410.465 160.28 409.741 160.508 408.765 160.508H407.157V164H406.065V155.636H408.765C409.709 155.636 410.425 155.864 410.913 156.32C411.409 156.776 411.657 157.364 411.657 158.084ZM408.765 159.608C409.373 159.608 409.821 159.476 410.109 159.212C410.397 158.948 410.541 158.572 410.541 158.084C410.541 157.052 409.949 156.536 408.765 156.536H407.157V159.608H408.765Z" fill="white" style="fill:white;fill-opacity:1;"/>
</g>
<rect x="0.5" y="0.5" width="563" height="563" rx="281.5" stroke="white" stroke-opacity="0.08" style="stroke:white;stroke-opacity:0.08;"/>
<defs>
<filter id="filter0_f_32_38" x="-699" y="-235" width="1483" height="1483" filterUnits="userSpaceOnUse" color-interpolation-filters="sRGB">
<feFlood flood-opacity="0" result="BackgroundImageFix"/>
<feBlend mode="normal" in="SourceGraphic" in2="BackgroundImageFix" result="shape"/>
<feGaussianBlur stdDeviation="250" result="effect1_foregroundBlur_32_38"/>
</filter>
<filter id="filter1_f_32_38" x="-289" y="-703" width="1483" height="1483" filterUnits="userSpaceOnUse" color-interpolation-filters="sRGB">
<feFlood flood-opacity="0" result="BackgroundImageFix"/>
<feBlend mode="normal" in="SourceGraphic" in2="BackgroundImageFix" result="shape"/>
<feGaussianBlur stdDeviation="250" result="effect1_foregroundBlur_32_38"/>
</filter>
<filter id="filter2_f_32_38" x="-420.398" y="-428.475" width="1277.31" height="1320.3" filterUnits="userSpaceOnUse" color-interpolation-filters="sRGB">
<feFlood flood-opacity="0" result="BackgroundImageFix"/>
<feBlend mode="normal" in="SourceGraphic" in2="BackgroundImageFix" result="shape"/>
<feGaussianBlur stdDeviation="125" result="effect1_foregroundBlur_32_38"/>
</filter>
<clipPath id="clip0_32_38">
<rect width="564" height="564" rx="282" fill="white" style="fill:white;fill-opacity:1;"/>
</clipPath>
</defs>
</svg>
